<?xml version="1.0" encoding="UTF-8" standalone="no"?><!DOCTYPE svg PUBLIC "-//W3C//DTD SVG 1.1//EN" "http://www.w3.org/Graphics/SVG/1.1/DTD/svg11.dtd"><svg width="100%" height="100%" viewBox="0 0 120 120" version="1.1" xmlns="http://www.w3.org/2000/svg" xmlns:xlink="http://www.w3.org/1999/xlink" xml:space="preserve" xmlns:serif="http://www.serif.com/" style="fill-rule:evenodd;clip-rule:evenodd;stroke-linejoin:round;stroke-miterlimit:2;"><path d="M108,36c0,-13.246 -10.754,-24 -24,-24l-48,0c-13.246,0 -24,10.754 -24,24l0,48c0,13.246 10.754,24 24,24l48,0c13.246,0 24,-10.754 24,-24l0,-48Z" style="fill:#616161;"/><g><path d="M44.853,30.653c0,-2.612 -2.121,-4.733 -4.733,-4.733l-9.467,0c-2.612,0 -4.733,2.121 -4.733,4.733l0,9.467c0,2.612 2.121,4.733 4.733,4.733l9.467,0c2.612,0 4.733,-2.121 4.733,-4.733l0,-9.467Z" style="fill:#ff2a2a;"/><path d="M44.853,55.267c0,-2.613 -2.121,-4.734 -4.733,-4.734l-9.467,0c-2.612,0 -4.733,2.121 -4.733,4.734l0,9.466c0,2.613 2.121,4.734 4.733,4.734l9.467,0c2.612,0 4.733,-2.121 4.733,-4.734l0,-9.466Z" style="fill:#c167fc;"/><path d="M44.853,79.88c0,-2.612 -2.121,-4.733 -4.733,-4.733l-9.467,0c-2.612,0 -4.733,2.121 -4.733,4.733l0,9.467c0,2.612 2.121,4.733 4.733,4.733l9.467,0c2.612,0 4.733,-2.121 4.733,-4.733l0,-9.467Z" style="fill:#c167fc;"/><path d="M69.467,79.88c0,-2.612 -2.121,-4.733 -4.734,-4.733l-9.466,0c-2.613,0 -4.734,2.121 -4.734,4.733l0,9.467c0,2.612 2.121,4.733 4.734,4.733l9.466,0c2.613,0 4.734,-2.121 4.734,-4.733l0,-9.467Z" style="fill:#c167fc;"/><path d="M69.467,30.653c0,-2.612 -2.121,-4.733 -4.734,-4.733l-9.466,0c-2.613,0 -4.734,2.121 -4.734,4.733l0,9.467c0,2.612 2.121,4.733 4.734,4.733l9.466,0c2.613,0 4.734,-2.121 4.734,-4.733l0,-9.467Z" style="fill:#45f36f;"/><path d="M94.08,30.653c0,-2.612 -2.121,-4.733 -4.733,-4.733l-9.467,0c-2.612,0 -4.733,2.121 -4.733,4.733l0,9.467c0,2.612 2.121,4.733 4.733,4.733l9.467,0c2.612,0 4.733,-2.121 4.733,-4.733l0,-9.467Z" style="fill:#45f36f;"/><path d="M94.08,55.267c0,-2.613 -2.121,-4.734 -4.733,-4.734l-9.467,0c-2.612,0 -4.733,2.121 -4.733,4.734l0,9.466c0,2.613 2.121,4.734 4.733,4.734l9.467,0c2.612,0 4.733,-2.121 4.733,-4.734l0,-9.466Z" style="fill:#45f36f;"/><path d="M69.467,55.267c0,-2.613 -2.121,-4.734 -4.734,-4.734l-9.466,0c-2.613,0 -4.734,2.121 -4.734,4.734l0,9.466c0,2.613 2.121,4.734 4.734,4.734l9.466,0c2.613,0 4.734,-2.121 4.734,-4.734l0,-9.466Z" style="fill:#323232;"/><path d="M94.08,79.88c0,-2.612 -2.121,-4.733 -4.733,-4.733l-9.467,0c-2.612,0 -4.733,2.121 -4.733,4.733l0,9.467c0,2.612 2.121,4.733 4.733,4.733l9.467,0c2.612,0 4.733,-2.121 4.733,-4.733l0,-9.467Z" style="fill:#2687e4;"/></g></svg>