# Blender v2.80 (sub 75) OBJ File: 'lab-button.blend'
# www.blender.org
o Cube.003_Cube.009
v -1.031754 -1.031754 -1.031754
v -1.043301 -1.043301 -1.043301
v -1.031754 -1.031754 1.031754
v -1.043301 -1.043301 1.043301
v -1.031754 1.031754 1.031754
v -1.043301 1.043301 1.043301
v -1.031754 1.031754 -1.031754
v -1.043301 1.043301 -1.043301
v 1.031754 -1.031754 -1.031754
v 1.043301 -1.043301 -1.043301
v 1.031754 1.031754 -1.031754
v 1.043301 1.043301 -1.043301
v 1.031754 -1.031754 1.031754
v 1.043301 -1.043301 1.043301
v 1.031754 1.031754 1.031754
v 1.043301 1.043301 1.043301
v -1.031754 -1.031754 1.031754
v -1.043301 -1.043301 1.043301
v -1.031754 1.031754 1.031754
v -1.043301 1.043301 1.043301
v -1.031754 -1.031754 -1.031754
v -1.043301 -1.043301 -1.043301
v -1.031754 1.031754 -1.031754
v -1.043301 1.043301 -1.043301
v 1.031754 -1.031754 1.031754
v 1.043301 -1.043301 1.043301
v 1.031754 1.031754 1.031754
v 1.043301 1.043301 1.043301
v 1.031754 -1.031754 -1.031754
v 1.043301 -1.043301 -1.043301
v 1.031754 1.031754 -1.031754
v 1.043301 1.043301 -1.043301
v -1.037528 -1.027528 1.027528
v -1.037528 1.027528 1.027528
v -1.037528 1.027528 -1.027528
v -1.037528 -1.027528 -1.027528
v -1.027528 -1.027528 -1.037528
v -1.027528 1.027528 -1.037528
v 1.027528 1.027528 -1.037528
v 1.027528 -1.027528 -1.037528
v 1.037528 -1.027528 -1.027528
v 1.037528 1.027528 -1.027528
v 1.037528 1.027528 1.027528
v 1.037528 -1.027528 1.027528
v 1.027528 -1.027528 1.037528
v 1.027528 1.027528 1.037528
v -1.027528 1.027528 1.037528
v -1.027528 -1.027528 1.037528
v -1.027528 -1.037528 -1.027528
v 1.027528 -1.037528 -1.027528
v 1.027528 -1.037528 1.027528
v -1.027528 -1.037528 1.027528
v 1.027528 1.037528 -1.027528
v -1.027528 1.037528 -1.027528
v -1.027528 1.037528 1.027528
v 1.027528 1.037528 1.027528
v -1.037528 -1.027528 1.027528
v -1.037528 1.027528 1.027528
v -1.037528 1.027528 -1.027528
v -1.037528 -1.027528 -1.027528
v -1.027528 -1.027528 -1.037528
v -1.027528 1.027528 -1.037528
v 1.027528 1.027528 -1.037528
v 1.027528 -1.027528 -1.037528
v 1.037528 -1.027528 -1.027528
v 1.037528 1.027528 -1.027528
v 1.037528 1.027528 1.027528
v 1.037528 -1.027528 1.027528
v 1.027528 -1.027528 1.037528
v 1.027528 1.027528 1.037528
v -1.027528 1.027528 1.037528
v -1.027528 -1.027528 1.037528
v -1.027528 -1.037528 -1.027528
v 1.027528 -1.037528 -1.027528
v 1.027528 -1.037528 1.027528
v -1.027528 -1.037528 1.027528
v 1.027528 1.037528 -1.027528
v -1.027528 1.037528 -1.027528
v -1.027528 1.037528 1.027528
v 1.027528 1.037528 1.027528
vt 0.375000 0.000000
vt 0.625000 0.000000
vt 0.625000 0.000000
vt 0.375000 0.000000
vt 0.375000 0.000000
vt 0.625000 0.000000
vt 0.625000 0.250000
vt 0.625000 0.250000
vt 0.625000 0.250000
vt 0.375000 0.250000
vt 0.375000 0.250000
vt 0.375000 0.250000
vt 0.375000 0.250000
vt 0.625000 0.250000
vt 0.625000 0.500000
vt 0.625000 0.500000
vt 0.625000 0.500000
vt 0.375000 0.500000
vt 0.375000 0.500000
vt 0.375000 0.500000
vt 0.375000 0.500000
vt 0.625000 0.500000
vt 0.625000 0.750000
vt 0.625000 0.750000
vt 0.625000 0.750000
vt 0.375000 0.750000
vt 0.375000 0.750000
vt 0.375000 0.750000
vt 0.375000 0.750000
vt 0.625000 0.750000
vt 0.625000 1.000000
vt 0.625000 1.000000
vt 0.625000 1.000000
vt 0.375000 1.000000
vt 0.375000 1.000000
vt 0.375000 1.000000
vt 0.125000 0.500000
vt 0.375000 0.500000
vt 0.125000 0.500000
vt 0.125000 0.500000
vt 0.375000 0.750000
vt 0.125000 0.750000
vt 0.125000 0.750000
vt 0.125000 0.750000
vt 0.625000 0.500000
vt 0.875000 0.500000
vt 0.875000 0.500000
vt 0.875000 0.500000
vt 0.875000 0.750000
vt 0.875000 0.750000
vt 0.875000 0.750000
vt 0.625000 0.750000
vt 0.375000 0.000000
vt 0.625000 0.000000
vt 0.625000 0.000000
vt 0.375000 0.000000
vt 0.375000 0.000000
vt 0.625000 0.000000
vt 0.625000 0.250000
vt 0.625000 0.250000
vt 0.625000 0.250000
vt 0.375000 0.250000
vt 0.375000 0.250000
vt 0.375000 0.250000
vt 0.375000 0.250000
vt 0.625000 0.250000
vt 0.625000 0.500000
vt 0.625000 0.500000
vt 0.625000 0.500000
vt 0.375000 0.500000
vt 0.375000 0.500000
vt 0.375000 0.500000
vt 0.375000 0.500000
vt 0.625000 0.500000
vt 0.625000 0.750000
vt 0.625000 0.750000
vt 0.625000 0.750000
vt 0.375000 0.750000
vt 0.375000 0.750000
vt 0.375000 0.750000
vt 0.375000 0.750000
vt 0.625000 0.750000
vt 0.625000 1.000000
vt 0.625000 1.000000
vt 0.625000 1.000000
vt 0.375000 1.000000
vt 0.375000 1.000000
vt 0.375000 1.000000
vt 0.125000 0.500000
vt 0.375000 0.500000
vt 0.125000 0.500000
vt 0.125000 0.500000
vt 0.375000 0.750000
vt 0.125000 0.750000
vt 0.125000 0.750000
vt 0.125000 0.750000
vt 0.625000 0.500000
vt 0.875000 0.500000
vt 0.875000 0.500000
vt 0.875000 0.500000
vt 0.875000 0.750000
vt 0.875000 0.750000
vt 0.875000 0.750000
vt 0.625000 0.750000
vn 0.5907 0.0000 -0.8069
vn -0.9391 0.0000 -0.3437
vn 0.5907 -0.8069 0.0000
vn -0.9391 -0.3437 0.0000
vn 0.5907 0.0000 0.8069
vn -0.9391 0.0000 0.3437
vn 0.5907 0.8069 0.0000
vn -0.9391 0.3437 0.0000
vn 0.8069 0.0000 0.5907
vn 0.3437 0.0000 -0.9391
vn 0.0000 -0.8069 0.5907
vn 0.0000 -0.3437 -0.9391
vn -0.8069 0.0000 0.5907
vn -0.3437 0.0000 -0.9391
vn 0.0000 0.8069 0.5907
vn 0.0000 0.3437 -0.9391
vn -0.5907 0.0000 0.8069
vn 0.9391 0.0000 0.3437
vn -0.5907 -0.8069 0.0000
vn 0.9391 -0.3437 0.0000
vn -0.5907 0.0000 -0.8069
vn 0.9391 0.0000 -0.3437
vn -0.5907 0.8069 0.0000
vn 0.9391 0.3437 0.0000
vn -0.8069 0.0000 -0.5907
vn -0.3437 0.0000 0.9391
vn 0.0000 -0.8069 -0.5907
vn 0.0000 -0.3437 0.9391
vn 0.8069 0.0000 -0.5907
vn 0.3437 0.0000 0.9391
vn 0.0000 0.8069 -0.5907
vn 0.0000 0.3437 0.9391
vn 0.0000 0.5907 0.8069
vn 0.0000 -0.9391 0.3437
vn -0.8069 0.5907 0.0000
vn -0.3437 -0.9391 0.0000
vn 0.0000 0.5907 -0.8069
vn 0.0000 -0.9391 -0.3437
vn 0.8069 0.5907 0.0000
vn 0.3437 -0.9391 0.0000
vn 0.0000 -0.5907 0.8069
vn 0.0000 0.9391 0.3437
vn 0.8069 -0.5907 0.0000
vn 0.3437 0.9391 0.0000
vn 0.0000 -0.5907 -0.8069
vn 0.0000 0.9391 -0.3437
vn -0.8069 -0.5907 0.0000
vn -0.3437 0.9391 0.0000
s off
f 33/1/1 34/2/1 5/3/1 3/4/1
f 34/2/2 33/1/2 4/5/2 6/6/2
f 34/2/3 35/7/3 7/8/3 5/3/3
f 35/7/4 34/2/4 6/6/4 8/9/4
f 35/7/5 36/10/5 1/11/5 7/8/5
f 36/10/6 35/7/6 8/9/6 2/12/6
f 36/10/7 33/1/7 3/4/7 1/11/7
f 33/1/8 36/10/8 2/12/8 4/5/8
f 37/13/9 38/14/9 7/8/9 1/11/9
f 38/14/10 37/13/10 2/12/10 8/9/10
f 38/14/11 39/15/11 11/16/11 7/8/11
f 39/15/12 38/14/12 8/9/12 12/17/12
f 39/15/13 40/18/13 9/19/13 11/16/13
f 40/18/14 39/15/14 12/17/14 10/20/14
f 40/18/15 37/13/15 1/11/15 9/19/15
f 37/13/16 40/18/16 10/20/16 2/12/16
f 41/21/17 42/22/17 11/16/17 9/19/17
f 42/22/18 41/21/18 10/20/18 12/17/18
f 42/22/19 43/23/19 15/24/19 11/16/19
f 43/23/20 42/22/20 12/17/20 16/25/20
f 43/23/21 44/26/21 13/27/21 15/24/21
f 44/26/22 43/23/22 16/25/22 14/28/22
f 44/26/23 41/21/23 9/19/23 13/27/23
f 41/21/24 44/26/24 14/28/24 10/20/24
f 45/29/25 46/30/25 15/24/25 13/27/25
f 46/30/26 45/29/26 14/28/26 16/25/26
f 46/30/27 47/31/27 5/32/27 15/24/27
f 47/31/28 46/30/28 16/25/28 6/33/28
f 47/31/29 48/34/29 3/35/29 5/32/29
f 48/34/30 47/31/30 6/33/30 4/36/30
f 48/34/31 45/29/31 13/27/31 3/35/31
f 45/29/32 48/34/32 4/36/32 14/28/32
f 49/37/33 50/38/33 9/19/33 1/39/33
f 50/38/34 49/37/34 2/40/34 10/20/34
f 50/38/35 51/41/35 13/27/35 9/19/35
f 51/41/36 50/38/36 10/20/36 14/28/36
f 51/41/37 52/42/37 3/43/37 13/27/37
f 52/42/38 51/41/38 14/28/38 4/44/38
f 52/42/39 49/37/39 1/39/39 3/43/39
f 49/37/40 52/42/40 4/44/40 2/40/40
f 53/45/41 54/46/41 7/47/41 11/16/41
f 54/46/42 53/45/42 12/17/42 8/48/42
f 54/46/43 55/49/43 5/50/43 7/47/43
f 55/49/44 54/46/44 8/48/44 6/51/44
f 55/49/45 56/52/45 15/24/45 5/50/45
f 56/52/46 55/49/46 6/51/46 16/25/46
f 56/52/47 53/45/47 11/16/47 15/24/47
f 53/45/48 56/52/48 16/25/48 12/17/48
f 57/53/1 58/54/1 19/55/1 17/56/1
f 58/54/2 57/53/2 18/57/2 20/58/2
f 58/54/3 59/59/3 23/60/3 19/55/3
f 59/59/4 58/54/4 20/58/4 24/61/4
f 59/59/5 60/62/5 21/63/5 23/60/5
f 60/62/6 59/59/6 24/61/6 22/64/6
f 60/62/7 57/53/7 17/56/7 21/63/7
f 57/53/8 60/62/8 22/64/8 18/57/8
f 61/65/9 62/66/9 23/60/9 21/63/9
f 62/66/10 61/65/10 22/64/10 24/61/10
f 62/66/11 63/67/11 31/68/11 23/60/11
f 63/67/12 62/66/12 24/61/12 32/69/12
f 63/67/13 64/70/13 29/71/13 31/68/13
f 64/70/14 63/67/14 32/69/14 30/72/14
f 64/70/15 61/65/15 21/63/15 29/71/15
f 61/65/16 64/70/16 30/72/16 22/64/16
f 65/73/17 66/74/17 31/68/17 29/71/17
f 66/74/18 65/73/18 30/72/18 32/69/18
f 66/74/19 67/75/19 27/76/19 31/68/19
f 67/75/20 66/74/20 32/69/20 28/77/20
f 67/75/21 68/78/21 25/79/21 27/76/21
f 68/78/22 67/75/22 28/77/22 26/80/22
f 68/78/23 65/73/23 29/71/23 25/79/23
f 65/73/24 68/78/24 26/80/24 30/72/24
f 69/81/25 70/82/25 27/76/25 25/79/25
f 70/82/26 69/81/26 26/80/26 28/77/26
f 70/82/27 71/83/27 19/84/27 27/76/27
f 71/83/28 70/82/28 28/77/28 20/85/28
f 71/83/29 72/86/29 17/87/29 19/84/29
f 72/86/30 71/83/30 20/85/30 18/88/30
f 72/86/31 69/81/31 25/79/31 17/87/31
f 69/81/32 72/86/32 18/88/32 26/80/32
f 73/89/33 74/90/33 29/71/33 21/91/33
f 74/90/34 73/89/34 22/92/34 30/72/34
f 74/90/35 75/93/35 25/79/35 29/71/35
f 75/93/36 74/90/36 30/72/36 26/80/36
f 75/93/37 76/94/37 17/95/37 25/79/37
f 76/94/38 75/93/38 26/80/38 18/96/38
f 76/94/39 73/89/39 21/91/39 17/95/39
f 73/89/40 76/94/40 18/96/40 22/92/40
f 77/97/41 78/98/41 23/99/41 31/68/41
f 78/98/42 77/97/42 32/69/42 24/100/42
f 78/98/43 79/101/43 19/102/43 23/99/43
f 79/101/44 78/98/44 24/100/44 20/103/44
f 79/101/45 80/104/45 27/76/45 19/102/45
f 80/104/46 79/101/46 20/103/46 28/77/46
f 80/104/47 77/97/47 31/68/47 27/76/47
f 77/97/48 80/104/48 28/77/48 32/69/48
